<svg width="65" height="65" viewBox="0 0 65 65" fill="none" xmlns="http://www.w3.org/2000/svg">
<path fill-rule="evenodd" clip-rule="evenodd" d="M2.34625 27.9977C0.0256959 30.3183 0.0256982 34.0806 2.34625 36.4012L28.2983 62.3532C30.6188 64.6738 34.3812 64.6738 36.7017 62.3532L62.6537 36.4012C64.9743 34.0806 64.9743 30.3183 62.6537 27.9977L36.7017 2.04571C34.3812 -0.274841 30.6188 -0.274839 28.2983 2.04571L2.34625 27.9977ZM34.0073 39.3729C37.9687 39.3729 41.18 36.1615 41.18 32.2001C41.18 28.2387 37.9687 25.0273 34.0073 25.0273C30.0458 25.0273 26.8345 28.2387 26.8345 32.2001C26.8345 36.1615 30.0458 39.3729 34.0073 39.3729Z" fill="#0063F5"/>
</svg>
